<?xml version="1.0" encoding="UTF-8"?>
<!DOCTYPE svg PUBLIC "-//W3C//DTD SVG 1.1//EN" "http://www.w3.org/Graphics/SVG/1.1/DTD/svg11.dtd">
<!-- Creator: CorelDRAW 2018 (64-Bit) -->
<svg xmlns="http://www.w3.org/2000/svg" xml:space="preserve" width="49px" height="60px" version="1.1" style="shape-rendering:geometricPrecision; text-rendering:geometricPrecision; image-rendering:optimizeQuality; fill-rule:evenodd; clip-rule:evenodd"
viewBox="0 0 49 60"
 xmlns:xlink="http://www.w3.org/1999/xlink">
 <defs>
  <style type="text/css">
   <![CDATA[
    .fil3 {fill:url(#id0)}
    .fil0 {fill:url(#id1)}
    .fil2 {fill:url(#id2)}
    .fil1 {fill:url(#id3)}
   ]]>
  </style>
  <linearGradient id="id0" gradientUnits="userSpaceOnUse" x1="-0.097" y1="56.907" x2="49.097" y2="56.907">
   <stop offset="0" style="stop-opacity:1; stop-color:#FF433E"/>
   <stop offset="1" style="stop-opacity:1; stop-color:#FF577C"/>
  </linearGradient>
  <linearGradient id="id1" gradientUnits="userSpaceOnUse" xlink:href="#id0" x1="10.208" y1="33.091" x2="38.793" y2="33.091">
  </linearGradient>
  <linearGradient id="id2" gradientUnits="userSpaceOnUse" xlink:href="#id0" x1="19.491" y1="3.094" x2="29.509" y2="3.094">
  </linearGradient>
  <linearGradient id="id3" gradientUnits="userSpaceOnUse" xlink:href="#id0" x1="19.491" y1="12.062" x2="29.509" y2="12.062">
  </linearGradient>
 </defs>
 <g id="Layer_x0020_1">
  <metadata id="CorelCorpID_0Corel-Layer"/>
  <g id="_2060246990976">
   <path class="fil0" d="M37.495 29.941l-7.787 0 0 -10.965c0,-0.379 -0.122,-0.69 -0.365,-0.933 -0.244,-0.243 -0.554,-0.365 -0.933,-0.365l-7.788 0c-0.378,0 -0.69,0.121 -0.933,0.365 -0.243,0.243 -0.365,0.554 -0.365,0.932l0 10.966 -7.787 0c-0.594,0 -1,0.27 -1.217,0.811 -0.216,0.515 -0.121,0.987 0.284,1.42l12.979 15.969c0.297,0.243 0.608,0.364 0.933,0.364 0.351,0 0.662,-0.121 0.933,-0.364l12.938 -15.928c0.271,-0.324 0.406,-0.649 0.406,-0.972 0,-0.381 -0.122,-0.691 -0.365,-0.936 -0.243,-0.242 -0.554,-0.364 -0.933,-0.364z"/>
   <rect class="fil1" x="19.491" y="8.968" width="10.018" height="6.188" rx="1.196" ry="0.994"/>
   <rect class="fil2" x="19.491" width="10.018" height="6.188" rx="1.196" ry="0.994"/>
   <rect class="fil3" x="-0.097" y="53.813" width="49.194" height="6.188" rx="5.872" ry="0.994"/>
  </g>
 </g>
</svg>
